<?xml version="1.0" standalone="no"?><svg xmlns="http://www.w3.org/2000/svg" viewBox="0 0 1440 320"><path fill="#0099ff" fill-opacity="1" d="M0,288L26.7,261.3C53.3,235,107,181,160,181.3C213.3,181,267,235,320,229.3C373.3,224,427,160,480,154.7C533.3,149,587,203,640,213.3C693.3,224,747,192,800,192C853.3,192,907,224,960,229.3C1013.3,235,1067,213,1120,186.7C1173.3,160,1227,128,1280,138.7C1333.3,149,1387,203,1413,229.3L1440,256L1440,320L1413.3,320C1386.7,320,1333,320,1280,320C1226.7,320,1173,320,1120,320C1066.7,320,1013,320,960,320C906.7,320,853,320,800,320C746.7,320,693,320,640,320C586.7,320,533,320,480,320C426.7,320,373,320,320,320C266.7,320,213,320,160,320C106.7,320,53,320,27,320L0,320Z"></path></svg>